<?xml version="1.0" standalone="no"?>
<!DOCTYPE svg PUBLIC "-//W3C//DTD SVG 20010904//EN"
 "http://www.w3.org/TR/2001/REC-SVG-20010904/DTD/svg10.dtd">
<svg version="1.0" xmlns="http://www.w3.org/2000/svg"
 width="700.000000pt" height="700.000000pt" viewBox="0 0 700.000000 700.000000"
 preserveAspectRatio="xMidYMid meet">
<metadata>
Created by potrace 1.14, written by Peter Selinger 2001-2017
</metadata>
<g transform="translate(0.000000,700.000000) scale(0.100000,-0.100000)"
fill="#000000" stroke="none">
<path d="M1255 6993 c-138 -12 -350 -75 -485 -143 -386 -196 -644 -533 -742
-971 l-23 -104 0 -2275 0 -2275 23 -104 c128 -568 527 -968 1095 -1093 l102
-23 2275 0 2275 0 102 23 c566 125 970 529 1095 1095 l23 102 0 2275 0 2275
-23 102 c-125 566 -522 964 -1090 1095 l-97 22 -2245 2 c-1235 0 -2263 -1
-2285 -3z m1705 -2228 c387 -834 550 -1175 561 -1175 11 0 156 324 525 1173
l510 1172 897 3 897 2 0 -230 0 -230 -245 0 -245 0 0 -1980 0 -1980 245 0 245
0 0 -230 0 -230 -1055 0 -1055 0 0 230 0 230 245 0 245 0 0 1781 0 1780 -26
-3 c-25 -3 -38 -33 -233 -523 -203 -509 -218 -543 -736 -1632 -291 -612 -530
-1112 -530 -1110 -1 1 -240 506 -530 1121 -487 1032 -544 1159 -735 1630 -196
486 -208 511 -233 514 l-27 3 0 -1780 0 -1781 245 0 245 0 0 -230 0 -230 -760
0 -760 0 0 230 0 230 245 0 245 0 0 1980 0 1980 -245 0 -245 0 0 230 0 230
883 0 882 0 545 -1175z"/>
</g>
</svg>
